<?xml version="1.0" encoding="UTF-8" standalone="no"?>
<svg
   viewBox="0 0 586456.38 25999.998"
   width="586456.38"
   height="25999.998"
   version="1.1"
   id="svg1"
   xmlns="http://www.w3.org/2000/svg"
   xmlns:svg="http://www.w3.org/2000/svg">
  <defs
     id="defs1">
    <style
       id="style1">
      @import url('https://fonts.googleapis.com/css2?family=Dancing+Script:wght@400..700&amp;display=swap');
      
      .wordmark { 
        font-family: 'Dancing Script', cursive; 
        font-size: 130px; 
        font-weight: 500;
        fill: #7c2d12; /* Deep Clay */
        text-anchor: middle; 
        dominant-baseline: central;
      }
      .ampersand { 
        fill: #fb923c; /* Terracotta */
      }
    </style>
  </defs>
  <!-- Transparent Background for versatile placement -->
  <!-- The Full Wordmark -->
  <!-- Centered horizontally and vertically in the viewBox -->
  <g
     id="text1"
     class="wordmark"
     style="font-weight:500;font-size:130px;font-family:'Dancing Script', cursive;dominant-baseline:central;text-anchor:middle;fill:#7c2d12"
     aria-label="Paper &amp; Ponder"
     transform="translate(-15143.993,-7935.2729)">
    <path
       d="m 28.549991,144.58636 q -3.51,0 -6.63,-1.95 -2.99,-1.82 -2.99,-4.81 0,-1.56 0.65,-3.64 0.65,-1.95 1.17,-3.64 4.16,-12.61 7.67,-23.53 3.64,-10.919997 7.28,-21.189997 3.64,-10.27 7.67,-20.54 4.03,-10.27 9.1,-21.45 -4.94,1.04 -8.71,2.73 -3.77,1.69 -6.11,2.99 -2.21,1.3 -3.12,1.3 -0.52,0 -1.56,-0.65 -1.04,-0.65 -1.95,-1.56 -0.78,-1.04 -0.78,-1.82 3.51,-1.43 8.19,-3.12 4.68,-1.69 10.14,-2.86 5.46,-1.17 11.05,-1.17 5.85,0 11.83,1.56 6.11,1.56 11.18,4.81 5.07,3.12 8.19,7.93 3.12,4.68 3.12,10.92 0,6.76 -3.12,11.7 -2.99,4.94 -8.06,8.32 -4.94,3.25 -10.79,5.33 -5.72,1.95 -11.44,3.12 -5.72,1.04 -10.27,1.43 -4.55,0.26 -6.63,0.26 h -1.17 q -3.77,13.259997 -7.41,26.259997 -3.51,12.87 -6.5,23.27 z m 14.69,-52.259997 q 7.15,-0.39 14.43,-2.34 7.41,-1.95 13.39,-5.59 6.11,-3.64 9.75,-8.97 3.77,-5.46 3.77,-12.74 0,-6.76 -3.38,-11.05 -3.38,-4.29 -8.84,-6.37 -5.33,-2.21 -11.44,-2.21 -4.68,9.36 -9.23,22.36 -4.42,12.87 -8.45,26.91 z m 39.78002,47.059997 q -4.16,0 -7.02,-2.73 -2.99,-2.73 -2.99,-8.32 0,-4.55 2.08,-9.88 2.08,-5.46 5.72,-10.66 3.64,-5.33 8.19,-9.619997 4.68,-4.29 9.88,-6.89 5.199999,-2.6 10.399999,-2.6 5.2,0 8.71,2.73 3.64,2.73 3.64,7.28 0,3.249997 -2.08,4.549997 -1.95,1.3 -4.94,1.17 0.26,-1.17 0.39,-2.34 0.26,-1.17 0.26,-2.339997 0,-2.86 -1.3,-4.94 -1.3,-2.21 -4.81,-2.21 -3.64,0 -7.41,2.6 -3.769999,2.47 -7.279999,6.629997 -3.38,4.16 -6.11,9.1 -2.73,4.81 -4.29,9.49 -1.56,4.68 -1.56,8.45 0,4.81 3.25,4.81 2.99,0 6.5,-2.86 3.64,-2.86 7.28,-7.15 3.769999,-4.42 7.149999,-9.1 3.38,-4.68 5.98,-8.32 0.39,-0.78 0.78,-0.78 0.65,0.13 1.95,0.52 1.3,0.39 2.34,1.17 1.04,0.78 1.04,1.95 0,1.17 -1.17,3.25 -1.04,1.95 -2.6,4.55 -1.43,2.47 -2.6,5.07 -1.04,2.6 -1.04,4.81 0,1.95 0.91,3.77 1.04,1.69 3.25,1.69 3.38,0 9.1,-4.94 5.72,-5.07 11.57,-15.6 l 1.69,1.69 q -2.86,7.02 -7.15,12.48 -4.29,5.33 -9.23,8.32 -4.81,2.99 -9.62,2.99 -4.94,0 -7.41,-3.12 -2.34,-2.99 -2.34,-6.5 0,-0.65 0,-1.3 0.13,-0.65 0.26,-1.43 -5.459999,7.15 -10.009999,10.79 -4.55,3.77 -9.36,3.77 z m 42.509889,30.29 q -1.04,0 -2.08,-0.91 -1.04,-0.91 -1.56,-2.08 -0.65,-1.04 -0.78,-1.43 2.34,-7.41 4.29,-13.13 1.95,-5.59 3.64,-11.18 1.69,-5.46 3.25,-12.35 1.43,-7.02 2.99,-16.9 1.69,-10.01 3.51,-24.439997 0.13,-1.3 0.52,-1.82 0.39,-0.65 2.08,-0.65 3.64,0 5.2,1.95 1.56,1.95 1.56,4.29 0,1.69 -0.65,5.98 -0.65,4.159997 -1.95,9.879997 2.34,-4.16 5.59,-8.189997 3.25,-4.16 7.41,-6.76 4.16,-2.73 9.1,-2.73 5.85,0 9.75,4.16 3.9,4.16 3.9,10.919997 0,5.07 -2.34,10.79 -2.21,5.59 -6.37,10.66 -4.16,4.94 -9.88,8.06 -5.59,3.12 -12.48,3.12 -3.64,0 -5.85,-0.91 -2.21,-0.78 -2.21,-1.82 0,-0.65 0.91,-0.78 1.04,0 2.34,0 5.46,-0.13 10.27,-2.6 4.94,-2.47 8.58,-6.5 3.77,-4.16 5.85,-9.1 2.08,-4.94 2.08,-9.62 0,-4.16 -1.82,-7.019997 -1.69,-2.86 -5.59,-2.86 -3.25,0 -6.63,2.08 -3.25,2.08 -6.24,5.459997 -2.86,3.25 -5.2,6.76 -2.21,3.51 -3.38,6.24 -2.34,9.36 -4.55,18.2 -2.21,8.97 -4.29,16.25 -2.08,7.28 -3.77,12.09 -1.82,4.81 -3.38,6.11 -0.78,0.78 -1.82,0.78 z m 74.1001,-30.68 q -8.06,0 -12.22,-4.42 -4.16,-4.42 -4.16,-10.92 0,-5.72 2.86,-12.22 2.99,-6.5 7.8,-12.219997 4.94,-5.72 10.79,-9.23 5.98,-3.51 11.83,-3.51 3.12,0 5.72,1.69 2.73,1.56 2.73,6.5 0,4.94 -2.86,9.229997 -2.86,4.29 -7.67,7.67 -4.81,3.38 -10.53,5.59 -5.59,2.08 -11.31,2.73 -0.26,1.04 -0.39,2.08 0,0.91 0,1.95 0,1.56 0.26,3.38 0.39,1.82 1.43,3.51 1.17,1.69 3.12,2.73 2.08,1.04 5.33,1.04 5.59,0 11.05,-3.12 5.46,-3.12 10.14,-8.19 4.81,-5.2 8.06,-11.44 l 1.95,1.43 q -3.51,7.8 -8.97,13.65 -5.46,5.72 -11.96,8.84 -6.37,3.25 -13,3.25 z m -6.11,-22.36 q 3.51,-0.91 7.8,-3.12 4.29,-2.21 8.32,-5.2 4.03,-3.12 6.63,-6.76 2.6,-3.769997 2.6,-7.799997 0,-1.43 -0.52,-2.08 -0.52,-0.65 -2.08,-0.65 -2.99,0 -6.5,2.34 -3.38,2.21 -6.63,5.98 -3.12,3.769997 -5.72,8.319997 -2.6,4.42 -3.9,8.97 z m 58.37005,20.02 q -4.55,0 -7.28,-2.47 -2.6,-2.34 -2.6,-6.24 0,-3.9 1.82,-8.06 1.82,-4.29 3.51,-8.45 1.82,-4.16 1.82,-7.41 0,-3.77 -2.21,-5.719997 -2.21,-2.08 -4.81,-3.64 -2.86,7.409997 -6.24,14.299997 -3.38,6.76 -5.46,10.4 l -1.43,-2.73 q 1.82,-3.38 4.68,-9.75 2.99,-6.5 5.85,-14.559997 -1.3,-1.3 -1.3,-3.25 0,-3.77 2.08,-6.37 2.21,-2.6 3.51,-2.6 1.56,0 1.82,1.43 0.39,1.3 0.39,1.95 0,0.65 -0.65,2.47 -0.65,1.82 -0.78,2.34 0.13,1.69 2.08,3.25 2.08,1.43 4.68,3.25 2.73,1.82 4.68,4.55 2.08,2.729997 2.08,6.889997 0,3.77 -1.69,7.8 -1.56,4.03 -3.25,7.54 -1.56,3.51 -1.56,6.24 0,2.08 1.04,2.86 1.17,0.65 2.6,0.65 3.12,0 6.37,-1.82 3.38,-1.95 6.5,-4.94 3.25,-2.99 5.72,-6.24 2.47,-3.38 3.64,-6.24 l 2.21,1.69 q -2.47,5.46 -6.89,10.79 -4.42,5.33 -9.88,8.71 -5.33,3.38 -11.05,3.38 z"
       id="path3"
       style="fill:#ffffff" />
    <path
       style="fill:#fb923c"
       d="m 335.22018,144.58636 q -7.93,0 -13.91,-3.25 -5.85,-3.25 -9.1,-8.71 -3.12,-5.46 -3.12,-11.83 0,-5.98 2.47,-11.57 2.6,-5.72 7.15,-10.399997 4.55,-4.81 10.66,-7.93 6.11,-3.12 13.13,-3.9 -4.81,-4.16 -7.28,-9.49 -2.34,-5.33 -2.34,-10.66 0,-6.89 3.51,-13.13 3.51,-6.24 9.62,-10.01 6.24,-3.9 14.17,-3.9 7.28,0 11.05,3.64 3.77,3.51 3.77,10.4 0,4.81 -1.69,9.49 -1.56,4.68 -3.9,7.67 -2.34,2.86 -4.55,2.86 -1.56,0 -2.99,-1.3 -1.43,-1.43 -2.34,-3.25 4.68,-3.9 7.67,-8.19 3.12,-4.42 3.12,-9.36 0,-3.9 -2.08,-6.24 -2.08,-2.47 -6.63,-2.47 -6.11,0 -10.27,3.64 -4.03,3.51 -6.24,9.36 -2.08,5.85 -2.08,12.61 0,3.12 0.52,6.63 0.65,3.51 2.47,7.02 1.82,3.51 5.2,6.5 -8.84,1.43 -15.47,6.63 -6.63,5.069997 -10.27,11.959997 -3.64,6.89 -3.64,13.65 0,4.16 1.56,8.45 1.69,4.29 5.33,7.15 3.77,2.86 9.88,2.86 6.89,0 13.26,-3.38 6.5,-3.38 11.7,-9.1 5.33,-5.85 8.71,-13 3.38,-7.15 4.29,-14.819997 -2.6,0.13 -4.94,0.39 -2.21,0.26 -5.07,0.779997 -2.73,0.39 -7.28,1.3 0.26,-5.849997 4.29,-7.799997 4.03,-1.95 9.62,-1.95 4.03,0 7.54,0.52 3.51,0.52 6.76,1.17 3.25,0.52 6.37,0.52 -1.69,3.51 -3.12,4.16 -1.43,0.65 -2.73,0.65 -2.34,0 -4.16,0.13 -1.82,0 -3.38,0 -0.91,8.969997 -4.94,17.159997 -3.9,8.06 -10.14,14.56 -6.24,6.37 -14.04,10.01 -7.67,3.77 -16.12,3.77 z"
       id="path4" />
    <path
       d="m 437.53022,144.58636 q -3.51,0 -6.63,-1.95 -2.99,-1.82 -2.99,-4.81 0,-1.56 0.65,-3.64 0.65,-1.95 1.17,-3.64 4.16,-12.61 7.67,-23.53 3.64,-10.919997 7.28,-21.189997 3.64,-10.27 7.67,-20.54 4.03,-10.27 9.1,-21.45 -4.94,1.04 -8.71,2.73 -3.77,1.69 -6.11,2.99 -2.21,1.3 -3.12,1.3 -0.52,0 -1.56,-0.65 -1.04,-0.65 -1.95,-1.56 -0.78,-1.04 -0.78,-1.82 3.51,-1.43 8.19,-3.12 4.68,-1.69 10.14,-2.86 5.46,-1.17 11.05,-1.17 5.85,0 11.83,1.56 6.11,1.56 11.18,4.81 5.07,3.12 8.19,7.93 3.12,4.68 3.12,10.92 0,6.76 -3.12,11.7 -2.99,4.94 -8.06,8.32 -4.94,3.25 -10.79,5.33 -5.72,1.95 -11.44,3.12 -5.72,1.04 -10.27,1.43 -4.55,0.26 -6.63,0.26 h -1.17 q -3.77,13.259997 -7.41,26.259997 -3.51,12.87 -6.5,23.27 z m 14.69,-52.259997 q 7.15,-0.39 14.43,-2.34 7.41,-1.95 13.39,-5.59 6.11,-3.64 9.75,-8.97 3.77,-5.46 3.77,-12.74 0,-6.76 -3.38,-11.05 -3.38,-4.29 -8.84,-6.37 -5.33,-2.21 -11.44,-2.21 -4.68,9.36 -9.23,22.36 -4.42,12.87 -8.45,26.91 z m 43.29006,45.109997 q -5.72,0 -8.06,-3.64 -2.21,-3.51 -2.21,-8.32 0,-4.03 1.3,-8.32 1.3,-4.42 3.51,-8.19 2.21,-3.77 4.94,-5.98 2.73,-2.34 5.46,-2.34 0.78,0 1.56,0.26 0.91,0.13 1.56,0.52 -1.3,1.43 -2.99,4.29 -1.56,2.73 -2.99,6.24 -1.43,3.38 -2.34,6.89 -0.91,3.38 -0.91,5.85 0,3.51 1.17,5.33 1.3,1.69 3.51,1.69 2.6,0 6.24,-2.86 3.64,-2.99 7.15,-7.15 -3.77,-3.25 -5.72,-7.93 -1.95,-4.81 -1.95,-10.4 0,-3.769997 1.43,-7.409997 1.43,-3.64 4.29,-5.98 2.99,-2.47 7.41,-2.47 5.46,0 7.41,2.99 1.95,2.86 1.95,7.15 0,5.069997 -2.47,11.179997 -2.47,6.11 -6.24,11.7 2.08,1.04 4.55,1.04 2.08,0 4.68,-0.78 2.6,-0.91 5.2,-2.99 2.6,-2.08 4.16,-5.72 l 1.82,1.43 q -2.73,6.37 -7.54,9.1 -4.68,2.6 -9.1,2.6 -1.69,0 -3.25,-0.26 -1.56,-0.39 -2.99,-0.91 -4.42,5.59 -9.88,9.49 -5.46,3.9 -10.66,3.9 z m 19.63,-19.37 q 3.12,-4.81 5.33,-10.01 2.21,-5.2 2.21,-9.879997 0,-3.51 -1.04,-5.07 -1.04,-1.69 -2.86,-1.69 -2.47,0 -5.2,3.77 -2.73,3.64 -2.73,9.229997 0,3.38 1.04,7.28 1.17,3.9 3.25,6.37 z m 61.88008,17.81 q -4.81,0 -7.28,-2.47 -2.34,-2.34 -2.34,-6.11 0,-2.6 0.91,-5.59 1.04,-2.99 1.95,-6.11 0.91,-3.12 0.91,-5.98 0,-3.38 -1.43,-4.68 -1.43,-1.3 -3.51,-1.3 -4.03,0 -8.19,3.25 -4.16,3.25 -8.06,8.32 -3.77,5.07 -7.15,10.4 -3.38,5.33 -5.98,9.62 -2.21,0 -4.16,-0.78 -2.08,-0.78 -3.25,-2.34 0,-0.65 1.43,-4.03 1.3,-3.38 3.12,-8.19 1.82,-4.81 3.12,-10.01 1.43,-5.2 1.43,-9.36 0.78,-1.039997 2.47,-1.949997 1.82,-0.91 3.77,-0.91 3.9,0 3.9,3.509997 0,1.95 -1.04,6.24 -0.91,4.16 -2.47,9.1 3.38,-5.07 7.67,-9.88 4.29,-4.94 8.97,-8.059997 4.81,-3.25 9.49,-3.25 5.33,0 7.67,3.77 2.47,3.639997 2.47,8.059997 0,4.03 -1.3,7.41 -1.3,3.38 -2.73,6.5 -1.3,3.12 -1.3,6.24 0,2.6 1.04,3.64 1.17,0.91 2.6,0.91 3.25,0 6.5,-2.99 3.38,-2.99 6.37,-7.67 3.12,-4.68 5.46,-9.49 l 1.69,1.82 q -2.73,6.37 -6.24,11.44 -3.38,4.94 -7.54,7.93 -4.03,2.99 -8.97,2.99 z m 26.26003,1.3 q -2.21,0 -4.68,-1.17 -2.34,-1.17 -3.9,-3.64 -1.56,-2.47 -1.56,-6.37 0,-4.29 2.08,-9.62 2.08,-5.33 5.59,-10.53 3.51,-5.33 8.06,-9.749997 4.68,-4.55 9.75,-7.15 5.07,-2.73 10.14,-2.73 2.86,0 4.42,1.04 1.56,0.91 1.56,2.99 0,0.52 -0.13,1.17 -0.13,0.52 -0.65,1.04 -0.52,-0.91 -1.82,-1.3 -1.3,-0.52 -2.99,-0.52 -4.16,0 -8.19,2.6 -3.9,2.47 -7.15,6.5 -3.25,3.899997 -5.72,8.579997 -2.47,4.55 -3.9,8.84 -1.3,4.16 -1.3,7.15 0,2.73 1.17,4.42 1.3,1.56 3.38,1.56 3.51,0 8.45,-4.29 4.94,-4.29 10.14,-12.22 5.2,-7.93 9.36,-18.719997 2.86,-7.54 5.85,-15.34 3.12,-7.8 6.24,-14.95 3.12,-7.15 6.11,-12.74 2.99,-5.72 5.72,-8.97 2.73,-3.38 4.81,-3.38 1.17,0 2.08,0.91 0.91,0.91 0.91,2.34 0,2.21 -2.21,7.15 -2.08,4.94 -5.46,11.83 -3.38,6.89 -7.28,14.95 -3.77,8.06 -7.15,16.51 -3.38,8.319997 -5.59,16.249997 -2.08,7.93 -2.08,14.56 0,3.51 0.39,5.07 0.52,1.56 2.47,1.56 2.73,0 6.37,-2.21 3.64,-2.34 7.28,-6.63 3.64,-4.29 6.37,-10.4 l 1.95,1.56 q -2.6,6.76 -7.02,12.09 -4.29,5.33 -9.23,8.32 -4.94,3.12 -9.49,3.12 -5.07,0 -7.02,-3.25 -1.95,-3.25 -1.95,-7.02 0,-2.21 0.52,-5.33 0.65,-3.12 1.56,-6.76 -4.16,6.5 -8.84,11.83 -4.55,5.2 -8.97,8.06 -4.42,2.99 -8.45,2.99 z m 68.64002,1.82 q -8.06,0 -12.22,-4.42 -4.16,-4.42 -4.16,-10.92 0,-5.72 2.86,-12.22 2.99,-6.5 7.8,-12.219997 4.94,-5.72 10.79,-9.23 5.98,-3.51 11.83,-3.51 3.12,0 5.72,1.69 2.73,1.56 2.73,6.5 0,4.94 -2.86,9.229997 -2.86,4.29 -7.67,7.67 -4.81,3.38 -10.53,5.59 -5.59,2.08 -11.31,2.73 -0.26,1.04 -0.39,2.08 0,0.91 0,1.95 0,1.56 0.26,3.38 0.39,1.82 1.43,3.51 1.17,1.69 3.12,2.73 2.08,1.04 5.33,1.04 5.59,0 11.05,-3.12 5.46,-3.12 10.14,-8.19 4.81,-5.2 8.06,-11.44 l 1.95,1.43 q -3.51,7.8 -8.97,13.65 -5.46,5.72 -11.96,8.84 -6.37,3.25 -13,3.25 z m -6.11,-22.36 q 3.51,-0.91 7.8,-3.12 4.29,-2.21 8.32,-5.2 4.03,-3.12 6.63,-6.76 2.6,-3.769997 2.6,-7.799997 0,-1.43 -0.52,-2.08 -0.52,-0.65 -2.08,-0.65 -2.99,0 -6.5,2.34 -3.38,2.21 -6.63,5.98 -3.12,3.769997 -5.72,8.319997 -2.6,4.42 -3.9,8.97 z m 58.37005,20.02 q -4.55,0 -7.28,-2.47 -2.6,-2.34 -2.6,-6.24 0,-3.9 1.82,-8.06 1.82,-4.29 3.51,-8.45 1.82,-4.16 1.82,-7.41 0,-3.77 -2.21,-5.719997 -2.21,-2.08 -4.81,-3.64 -2.86,7.409997 -6.24,14.299997 -3.38,6.76 -5.46,10.4 l -1.43,-2.73 q 1.82,-3.38 4.68,-9.75 2.99,-6.5 5.85,-14.559997 -1.3,-1.3 -1.3,-3.25 0,-3.77 2.08,-6.37 2.21,-2.6 3.51,-2.6 1.56,0 1.82,1.43 0.39,1.3 0.39,1.95 0,0.65 -0.65,2.47 -0.65,1.82 -0.78,2.34 0.13,1.69 2.08,3.25 2.08,1.43 4.68,3.25 2.73,1.82 4.68,4.55 2.08,2.729997 2.08,6.889997 0,3.77 -1.69,7.8 -1.56,4.03 -3.25,7.54 -1.56,3.51 -1.56,6.24 0,2.08 1.04,2.86 1.17,0.65 2.6,0.65 3.12,0 6.37,-1.82 3.38,-1.95 6.5,-4.94 3.25,-2.99 5.72,-6.24 2.47,-3.38 3.64,-6.24 l 2.21,1.69 q -2.47,5.46 -6.89,10.79 -4.42,5.33 -9.88,8.71 -5.33,3.38 -11.05,3.38 z"
       id="path5"
       style="fill:#ffffff" />
  </g>
</svg>
